<svg width="233" height="28" viewBox="0 0 233 28" fill="none" xmlns="http://www.w3.org/2000/svg">
<path d="M176.199 24.6309C177.479 24.4474 178.6 24.1263 179.56 23.6675V5.22533L176.199 4.53719V1.16529H191.148C194.714 1.16529 197.525 1.85344 199.582 3.22972C201.64 4.606 202.668 6.44105 202.668 8.73486C202.668 12.2673 200.725 14.7217 196.84 16.098L201.64 23.6675C202.462 24.0804 203.514 24.4016 204.794 24.6309V27.3147H195.742L189.16 16.8549H186.554V23.4611C187.605 24.1034 188.725 24.4933 189.914 24.6309V27.3147H176.199V24.6309ZM190.668 13.483C192.634 13.483 193.891 13.2766 194.44 12.8637C195.034 12.4508 195.331 11.3039 195.331 9.423C195.24 7.45032 194.965 6.23461 194.508 5.77584C194.051 5.31708 193.022 5.0877 191.422 5.0877L186.554 5.15652V13.483H190.668Z" fill="#181618"/>
<path d="M159.621 27.7964C155.553 27.7964 152.17 26.5807 149.473 24.1492C146.821 21.6719 145.495 18.5524 145.495 14.7905C145.495 10.4781 146.821 7.06038 149.473 4.53719C152.124 1.96813 155.484 0.683594 159.553 0.683594C163.804 0.683594 167.21 1.96813 169.77 4.53719C172.376 7.10625 173.678 10.4552 173.678 14.5841C173.678 18.4835 172.33 21.6719 169.633 24.1492C166.981 26.5807 163.644 27.7964 159.621 27.7964ZM166.136 17.4054C166.136 14.5611 166.021 12.1756 165.793 10.2488C165.564 8.27609 165.061 6.92275 164.284 6.18873C163.507 5.40884 161.747 5.01889 159.004 5.01889C156.993 5.11064 155.644 5.34002 154.958 5.70703C154.318 6.07404 153.838 6.71631 153.518 7.63383C153.198 8.50547 153.038 9.92764 153.038 11.9003C153.038 14.607 153.153 16.9237 153.381 18.8505C153.61 20.7773 154.09 22.1536 154.821 22.9794C155.598 23.7593 157.175 24.1492 159.553 24.1492C162.295 24.1492 164.078 23.7134 164.901 22.8418C165.724 21.9701 166.136 20.158 166.136 17.4054Z" fill="#181618"/>
<path d="M118.632 24.6309C119.912 24.4474 121.032 24.1263 121.992 23.6675V5.22533L118.632 4.53719V1.16529H132.69V4.53719C131.135 4.76657 129.901 5.13358 128.987 5.63822V23.874L135.707 23.8052C137.307 21.9701 138.861 19.7222 140.37 17.0614L143.387 17.956L141.33 27.3147H118.632V24.6309Z" fill="#181618"/>
<path d="M87.654 24.6309C88.934 24.4474 90.054 24.1263 91.0141 23.6675V5.22533L87.654 4.53719V1.16529H101.026V4.39956C99.8369 4.53719 98.8312 4.81245 98.0084 5.22533V14.3088C100.477 12.1068 103.7 9.01011 107.677 5.01889C107.357 4.92714 106.374 4.72069 104.728 4.39956V1.16529H115.906V4.53719L113.026 5.22533L106.511 11.3498L114.191 23.6675C115.014 24.1263 115.974 24.4474 117.071 24.6309V27.3147H108.02L101.231 16.1668L98.0084 19.057V23.5987C98.9227 24.1951 99.9284 24.5851 101.026 24.7686V27.3147H87.654V24.6309Z" fill="#181618"/>
<path d="M57.7042 24.6309C58.9842 24.4474 60.1042 24.1263 61.0643 23.6675V5.22533L57.7042 4.53719V1.16529H72.6529C76.2186 1.16529 79.0301 1.85344 81.0872 3.22972C83.1444 4.606 84.173 6.44105 84.173 8.73486C84.173 12.2673 82.2301 14.7217 78.3443 16.098L83.1444 23.6675C83.9672 24.0804 85.0187 24.4016 86.2987 24.6309V27.3147H77.2472L70.6643 16.8549H68.0586V23.4611C69.11 24.1034 70.23 24.4933 71.4186 24.6309V27.3147H57.7042V24.6309ZM72.1729 13.483C74.1386 13.483 75.3958 13.2766 75.9443 12.8637C76.5386 12.4508 76.8358 11.3039 76.8358 9.423C76.7443 7.45032 76.47 6.23461 76.0129 5.77584C75.5558 5.31708 74.5272 5.0877 72.9272 5.0877L68.0586 5.15652V13.483H72.1729Z" fill="#181618"/>
<path d="M41.127 27.7964C37.0584 27.7964 33.6755 26.5807 30.9784 24.1492C28.3269 21.6719 27.0012 18.5524 27.0012 14.7905C27.0012 10.4781 28.3269 7.06038 30.9784 4.53719C33.6298 1.96813 36.9898 0.683594 41.0584 0.683594C45.3099 0.683594 48.7156 1.96813 51.2756 4.53719C53.8814 7.10625 55.1842 10.4552 55.1842 14.5841C55.1842 18.4835 53.8356 21.6719 51.1385 24.1492C48.487 26.5807 45.1499 27.7964 41.127 27.7964ZM47.6413 17.4054C47.6413 14.5611 47.527 12.1756 47.2985 10.2488C47.0699 8.27609 46.567 6.92275 45.7899 6.18873C45.0127 5.40884 43.2527 5.01889 40.5099 5.01889C38.4984 5.11064 37.1498 5.34002 36.4641 5.70703C35.8241 6.07404 35.3441 6.71631 35.0241 7.63383C34.7041 8.50547 34.5441 9.92764 34.5441 11.9003C34.5441 14.607 34.6584 16.9237 34.887 18.8505C35.1155 20.7773 35.5955 22.1536 36.327 22.9794C37.1041 23.7593 38.6813 24.1492 41.0584 24.1492C43.8013 24.1492 45.5842 23.7134 46.407 22.8418C47.2299 21.9701 47.6413 20.158 47.6413 17.4054Z" fill="#181618"/>
<path d="M0 24.6309C1.28001 24.4474 2.40001 24.1263 3.36002 23.6675V5.22533L0 4.53719V1.16529H23.2458L25.0287 9.49181L21.943 10.3864C20.2972 7.86321 18.8572 5.98229 17.623 4.74363L10.3543 4.81245V13.0702H14.6744L15.4287 9.83588H18.6515L18.4458 19.6075H15.4972L14.6744 16.3732L10.3543 16.3044V23.8052C10.9486 24.0804 12.2972 24.3557 14.4001 24.6309V27.3147H0V24.6309Z" fill="#181618"/>
<path d="M206.148 24.6309C207.428 24.4474 208.548 24.1263 209.508 23.6675V5.22533L206.148 4.53719V1.16529H232.206L228.899 6.50358H226.034C226.034 6.50358 224.109 4.79765 223.908 4.74363L216.503 4.81245V12.4508H220.686L221.371 9.56063H224.594L226.645 14.4964L224.457 19.057H221.371L220.686 15.8227L216.503 15.5475V24.0116C216.503 24.0116 225.038 23.9428 225.136 23.9428C225.235 23.9428 226.456 22.4644 226.645 22.0047H229.51L232.816 27.3147H206.148V24.6309Z" fill="#181618"/>
</svg>
