<svg width="451" height="109" viewBox="0 0 451 109" fill="none" xmlns="http://www.w3.org/2000/svg">
<path d="M0 106.614V31.1885H23.7096L24.5052 37.8717C27.8999 35.4318 31.7189 33.4693 35.9622 31.9841C40.2056 30.3929 44.7672 29.5972 49.647 29.5972C54.739 29.5972 58.7171 30.3929 61.5814 31.9841C64.4456 33.4693 66.6734 35.5909 68.2646 38.3491C71.7654 35.8031 75.6904 33.7345 80.0398 32.1432C84.4953 30.4459 89.6934 29.5972 95.6341 29.5972C104.439 29.5972 110.91 31.878 115.047 36.4396C119.185 41.0012 121.253 47.9496 121.253 57.285V106.614H95.9524V60.3084C95.9524 56.1711 95.0506 53.2008 93.2472 51.3974C91.5499 49.4879 88.7387 48.5331 84.8136 48.5331C82.3737 48.5331 79.9868 49.0635 77.653 50.1244C75.3192 51.0791 73.3566 52.4582 71.7654 54.2616C71.9775 55.4285 72.0836 56.5424 72.0836 57.6032C72.1897 58.6641 72.2427 59.9371 72.2427 61.4222V106.614H48.374V59.9901C48.374 56.1711 47.6844 53.3069 46.3054 51.3974C45.0324 49.4879 42.5394 48.5331 38.8265 48.5331C36.1744 48.5331 33.6814 49.2226 31.3476 50.6017C29.0138 51.9808 26.8921 53.5721 24.9826 55.3755V106.614H0Z" fill="#373A43"/>
<path d="M175.119 108.205C160.586 108.205 149.872 104.863 142.976 98.1801C136.081 91.3908 132.633 81.6311 132.633 68.9011C132.633 56.2772 136.081 46.5706 142.976 39.7812C149.978 32.9919 160.692 29.5972 175.119 29.5972C189.653 29.5972 200.367 32.9919 207.263 39.7812C214.264 46.5706 217.765 56.2772 217.765 68.9011C217.765 81.6311 214.317 91.3908 207.422 98.1801C200.526 104.863 189.759 108.205 175.119 108.205ZM175.119 88.1552C181.06 88.1552 185.303 86.6701 187.849 83.6997C190.395 80.7294 191.668 75.7965 191.668 68.9011C191.668 62.0057 190.395 57.0728 187.849 54.1025C185.303 51.1322 181.06 49.647 175.119 49.647C169.285 49.647 165.095 51.1322 162.549 54.1025C160.003 57.0728 158.73 62.0057 158.73 68.9011C158.73 75.7965 160.003 80.7294 162.549 83.6997C165.095 86.6701 169.285 88.1552 175.119 88.1552Z" fill="#373A43"/>
<path d="M261.792 108.205C252.456 108.205 245.561 105.818 241.105 101.044C236.756 96.2706 234.581 89.6934 234.581 81.3128V50.6017H224.397V31.1885H234.581V15.4351L260.2 8.59274V31.1885H278.5L277.386 50.6017H260.2V79.5625C260.2 83.1693 261.102 85.7153 262.905 87.2005C264.709 88.5796 267.414 89.2691 271.021 89.2691C274.097 89.2691 277.227 88.7387 280.409 87.6778V105.022C275.423 107.144 269.217 108.205 261.792 108.205Z" fill="#373A43"/>
<path d="M295.371 19.2541V4.81138e-06H323.218V19.2541H295.371ZM297.439 106.614V50.1244H286.301L288.528 31.1885H323.058V106.614H297.439Z" fill="#373A43"/>
<path d="M429.749 106.614V87.837H450.276V106.614H429.749Z" fill="#373A43"/>
<path d="M362.85 106.614L333.093 31.1885H359.826L376.375 80.199L403.731 0.113665H431.919L390.06 106.614H362.85Z" fill="#373A43"/>
<path d="M429.749 106.614V87.837H450.276V106.614H429.749Z" fill="#373A43"/>
<path d="M362.849 106.5L333.093 31.0748H359.826L376.375 80.0853L403.731 0H431.919L390.06 106.5H362.849Z" fill="#E16A44"/>
</svg>
