<svg xmlns="http://www.w3.org/2000/svg" viewBox="-0.5 -0.5 32 32" id="Square-Behance--Streamline-Font-Awesome" height="32" width="32"><desc>Square Behance Streamline Icon: https://streamlinehq.com</desc><!--! Font Awesome Free 6.5.2 by @fontawesome - https://fontawesome.com License - https://fontawesome.com/license/free (Icons: CC BY 4.0, Fonts: SIL OFL 1.1, Code: MIT License) Copyright 2024 Fonticons, Inc.--><path d="M10.84128125 19.731499999999997c1.166375 0 2.11575 -0.41365624999999995 2.11575 -1.7224374999999996 0 -1.3359062499999999 -0.7934062499999999 -1.8580624999999997 -2.0547187499999997 -1.8648437499999997h-3.1193749999999993v3.5872812499999993h3.0583437499999997Zm-0.36618749999999994 -8.788499999999999h-2.6853749999999996v3.038h2.8955937499999993c1.0239687499999999 0 1.7495624999999997 -0.4475624999999999 1.7495624999999997 -1.5529062499999997 0 -1.2002812499999997 -0.9290312499999999 -1.4850937499999999 -1.9597812499999996 -1.4850937499999999Zm8.781718749999998 5.072374999999999h4.2179375c-0.11528124999999997 -1.2545312499999997 -0.7662812499999999 -2.01403125 -2.0682812499999996 -2.01403125 -1.24096875 0 -2.0682812499999996 0.7730625 -2.1496562499999996 2.01403125ZM26.349999999999998 0.31H4.6499999999999995C2.25621875 0.31 0.31 2.25621875 0.31 4.6499999999999995v21.7c0 2.3937812499999995 1.9462187499999999 4.339999999999999 4.339999999999999 4.339999999999999h21.7c2.3937812499999995 0 4.339999999999999 -1.9462187499999999 4.339999999999999 -4.339999999999999V4.6499999999999995c0 -2.3937812499999995 -1.9462187499999999 -4.339999999999999 -4.339999999999999 -4.339999999999999Zm-2.33953125 10.375312499999998h-5.275812499999999v-1.2816562499999997h5.275812499999999v1.2816562499999997Zm-10.565187499999999 3.9805937499999997c1.6003749999999999 0.45434374999999994 2.3734374999999996 1.8648437499999997 2.3734374999999996 3.4991249999999994 0 2.6446874999999994 -2.2174687499999997 3.7771562499999995 -4.584124999999999 3.790718749999999H4.92125v-13.019999999999998h6.137031249999999c2.2310312499999996 0 4.163687499999999 0.6306562499999999 4.163687499999999 3.221093749999999 0 1.30878125 -0.6103124999999999 1.9529999999999996 -1.7766874999999995 2.5090624999999993Zm8.049343749999998 -2.6175625c2.94984375 0 4.584124999999999 2.3259687499999995 4.584124999999999 5.113062499999999 0 0.10849999999999999 -0.006781249999999999 0.22378124999999996 -0.013562499999999998 0.3390625 0 0.05424999999999999 -0.006781249999999999 0.10171874999999998 -0.006781249999999999 0.1491875H19.263593749999995c0 1.5054374999999998 0.7934062499999999 2.3937812499999995 2.3124062499999996 2.3937812499999995 0.7866249999999999 0 1.7970312499999996 -0.4204374999999999 2.0479374999999997 -1.2274062499999998h2.2852812499999997c-0.7052499999999999 2.1632187499999995 -2.1632187499999995 3.1736249999999995 -4.41459375 3.1736249999999995 -2.9701874999999998 0 -4.821468749999999 -2.01403125 -4.821468749999999 -4.9503125 0 -2.8345624999999997 1.9462187499999999 -4.991 4.821468749999999 -4.991Z" stroke-width="1"></path></svg>