<svg xmlns="http://www.w3.org/2000/svg" viewBox="-0.5 -0.5 32 32" id="Linkedin--Streamline-Font-Awesome" height="32" width="32"><desc>Linkedin Streamline Icon: https://streamlinehq.com</desc><!--! Font Awesome Free 6.5.2 by @fontawesome - https://fontawesome.com License - https://fontawesome.com/license/free (Icons: CC BY 4.0, Fonts: SIL OFL 1.1, Code: MIT License) Copyright 2024 Fonticons, Inc.--><path d="M28.519999999999996 0.31H2.4732187499999996C1.2797187499999998 0.31 0.31 1.29328125 0.31 2.50034375v25.9993125c0 1.2070624999999997 0.9697187499999999 2.19034375 2.1632187499999995 2.19034375H28.519999999999996c1.1935 0 2.1699999999999995 -0.9832812499999999 2.1699999999999995 -2.19034375V2.50034375c0 -1.2070624999999997 -0.9764999999999998 -2.19034375 -2.1699999999999995 -2.19034375ZM9.491812499999998 26.349999999999998H4.989062499999999V11.851687499999999h4.509531249999999V26.349999999999998Zm-2.251375 -16.4784375c-1.4444062499999997 0 -2.6107812499999996 -1.17315625 -2.6107812499999996 -2.6107812499999996s1.166375 -2.6107812499999996 2.6107812499999996 -2.6107812499999996c1.4376249999999997 0 2.6107812499999996 1.17315625 2.6107812499999996 2.6107812499999996 0 1.4444062499999997 -1.166375 2.6107812499999996 -2.6107812499999996 2.6107812499999996ZM26.370343749999996 26.349999999999998h-4.50275V19.297499999999996c0 -1.6817499999999996 -0.03390624999999999 -3.8449687499999996 -2.33953125 -3.8449687499999996 -2.3463125 0 -2.7057187499999995 1.8309374999999999 -2.7057187499999995 3.7229062499999994V26.349999999999998h-4.50275V11.851687499999999h4.3196562499999995v1.9801249999999997h0.06103124999999999c0.6035312499999999 -1.1392499999999997 2.0750624999999996 -2.33953125 4.26540625 -2.33953125 4.556999999999999 0 5.404656249999999 3.0040937499999996 5.404656249999999 6.910093749999999V26.349999999999998Z" stroke-width="1"></path></svg>