<svg width="391" height="79" viewBox="0 0 391 79" fill="none" xmlns="http://www.w3.org/2000/svg">
<rect width="391" height="79" fill="white"/>
<path d="M30.64 56.64C30.08 56.64 29.56 56.5067 29.08 56.24C28.6 55.9733 28.2133 55.5067 27.92 54.84C27.6533 54.1733 27.5733 53.24 27.68 52.04C26.7467 48.8933 25.8933 45.76 25.12 42.64C24.3733 39.52 23.6667 36.3067 23 33C22.04 35.1867 21.1733 37.4267 20.4 39.72C19.6267 41.9867 18.9333 44.1333 18.32 46.16C17.7067 48.16 17.1467 49.84 16.64 51.2C16.24 52.4 15.84 53.2933 15.44 53.88C15.04 54.44 14.64 54.8 14.24 54.96C13.8667 55.1467 13.4933 55.24 13.12 55.24C12.2133 55.24 11.52 55.0267 11.04 54.6C10.56 54.1733 10.32 53.4 10.32 52.28C10.32 51.6933 10.48 50.8 10.8 49.6C11.12 48.3733 11.5467 46.9733 12.08 45.4C12.64 43.8 13.28 42.1333 14 40.4C14.72 38.64 15.48 36.9333 16.28 35.28C17.08 33.6267 17.88 32.1333 18.68 30.8C19.48 29.44 20.2533 28.36 21 27.56C21.7467 26.76 22.4133 26.36 23 26.36C23.5067 26.36 23.9733 26.4133 24.4 26.52C24.8267 26.6 25.24 26.84 25.64 27.24C26.04 27.6133 26.4533 28.24 26.88 29.12C27.2267 29.7867 27.5733 30.7467 27.92 32C28.2667 33.2267 28.6 34.64 28.92 36.24C29.24 37.8133 29.56 39.4667 29.88 41.2C30.2267 42.9333 30.5733 44.6267 30.92 46.28C31.9333 41.6667 32.7467 37.6133 33.36 34.12C34 30.6 34.4667 27.84 34.76 25.84C35.0533 23.84 35.2133 22.7867 35.24 22.68C35.4267 21.9067 35.6267 21.3733 35.84 21.08C36.0533 20.76 36.2933 20.5733 36.56 20.52C36.8267 20.44 37.1333 20.4 37.48 20.4C37.5067 20.4 37.52 20.4 37.52 20.4C38.2133 20.4 38.8933 20.68 39.56 21.24C40.2533 21.8 40.6 22.56 40.6 23.52C40.6 23.84 40.5333 24.56 40.4 25.68C40.2667 26.7733 40.0667 28.16 39.8 29.84C39.56 31.4933 39.24 33.3333 38.84 35.36C38.44 37.36 37.9733 39.4533 37.44 41.64C36.9333 43.8 36.36 45.9467 35.72 48.08C35.08 50.2133 34.3733 52.2133 33.6 54.08C33.1733 55.1467 32.6667 55.84 32.08 56.16C31.52 56.48 31.04 56.64 30.64 56.64ZM51.3313 55.32C49.4379 55.32 47.9179 54.6533 46.7713 53.32C45.6246 51.96 45.0513 50.1467 45.0513 47.88C45.0513 47.16 45.1446 46.4267 45.3313 45.68C45.5446 44.9333 45.7979 44.24 46.0913 43.6C45.9313 43.36 45.7979 43.0533 45.6913 42.68C45.6113 42.28 45.5713 41.8133 45.5713 41.28C45.5713 39.5467 45.8779 37.96 46.4913 36.52C47.1046 35.0533 47.9313 33.7867 48.9713 32.72C50.0113 31.6533 51.1579 30.8267 52.4113 30.24C53.6646 29.6533 54.9313 29.36 56.2113 29.36C58.3979 29.36 60.1846 30.0933 61.5713 31.56C62.9846 33.0267 63.6913 35.3067 63.6913 38.4C63.6913 39.9467 63.4513 41.52 62.9713 43.12C62.4913 44.72 61.8379 46.2533 61.0113 47.72C60.2113 49.16 59.2779 50.4533 58.2113 51.6C57.1713 52.7467 56.0513 53.6533 54.8513 54.32C53.6779 54.9867 52.5046 55.32 51.3313 55.32ZM50.6913 41.8C50.8246 42.0933 50.8913 42.44 50.8913 42.84C50.8913 43.24 50.8113 43.6533 50.6513 44.08C50.4913 44.5067 50.3313 45.08 50.1713 45.8C50.0113 46.4933 49.9313 47.4933 49.9313 48.8C49.9313 49.1467 49.9713 49.44 50.0513 49.68C50.1579 49.8933 50.3846 50 50.7313 50C51.6379 50 52.4913 49.7067 53.2913 49.12C54.1179 48.5333 54.8513 47.76 55.4913 46.8C56.1579 45.84 56.7179 44.7733 57.1713 43.6C57.6513 42.4 58.0113 41.1867 58.2513 39.96C58.5179 38.7067 58.6513 37.5467 58.6513 36.48C58.6513 35.7867 58.5179 35.3067 58.2513 35.04C57.9846 34.7733 57.5179 34.64 56.8513 34.64C55.9446 34.64 55.0113 34.9333 54.0513 35.52C53.1179 36.08 52.3313 36.8533 51.6913 37.84C51.0513 38.8 50.7313 39.8933 50.7313 41.12C50.7313 41.36 50.7179 41.5867 50.6913 41.8ZM71.0025 55.52C70.1492 55.52 69.3758 55.28 68.6825 54.8C67.9892 54.3467 67.4425 53.7467 67.0425 53C66.6425 52.2267 66.4425 51.4 66.4425 50.52C66.4425 48.8667 66.8025 47.2533 67.5225 45.68C68.2692 44.1067 69.2425 42.6133 70.4425 41.2C71.6425 39.7867 72.9492 38.4933 74.3625 37.32C75.8025 36.12 77.2292 35.0933 78.6425 34.24C80.0825 33.3867 81.3892 32.72 82.5625 32.24C83.7625 31.76 84.6958 31.52 85.3625 31.52C86.1358 31.52 86.7625 31.6933 87.2425 32.04C87.7492 32.36 88.0025 32.8667 88.0025 33.56C88.0025 33.7733 87.9492 33.9467 87.8425 34.08C88.1892 34.16 88.4692 34.36 88.6825 34.68C88.8958 35 89.0025 35.48 89.0025 36.12C89.0025 36.3867 88.9358 37.08 88.8025 38.2C88.6692 39.32 88.5225 40.68 88.3625 42.28C88.2292 43.88 88.1625 45.5467 88.1625 47.28C88.1625 47.5467 88.2025 47.7867 88.2825 48C88.3625 48.1867 88.5358 48.28 88.8025 48.28C89.8692 48.28 90.9492 48.0667 92.0425 47.64C93.1625 47.1867 94.2425 46.64 95.2825 46C96.3492 45.3333 97.3092 44.68 98.1625 44.04C99.0425 43.3733 99.7758 42.8267 100.363 42.4C100.976 41.9467 101.376 41.72 101.563 41.72C102.469 41.72 102.923 42.1733 102.923 43.08C102.923 43.32 102.629 43.8267 102.043 44.6C101.483 45.3467 100.709 46.2133 99.7225 47.2C98.7358 48.16 97.6292 49.12 96.4025 50.08C95.2025 51.0133 93.9492 51.7867 92.6425 52.4C91.3625 53.0133 90.1225 53.32 88.9225 53.32C87.4558 53.32 86.3358 52.9733 85.5625 52.28C84.8158 51.5867 84.2825 50.6533 83.9625 49.48C83.6692 48.28 83.5092 46.9333 83.4825 45.44C82.1225 47.3867 80.7092 49.12 79.2425 50.64C77.8025 52.1333 76.3758 53.32 74.9625 54.2C73.5492 55.08 72.2292 55.52 71.0025 55.52ZM85.1625 35.48C82.5492 36.7333 80.2025 38.1733 78.1225 39.8C76.0425 41.4 74.3892 43.08 73.1625 44.84C71.9625 46.6 71.3625 48.2933 71.3625 49.92C71.3625 50.3733 71.5758 50.6 72.0025 50.6C72.5092 50.6 73.1758 50.3067 74.0025 49.72C74.8558 49.1333 75.7758 48.36 76.7625 47.4C77.7492 46.4133 78.7358 45.32 79.7225 44.12C80.7092 42.8933 81.6292 41.64 82.4825 40.36C83.3358 39.08 84.0158 37.8533 84.5225 36.68C84.7092 36.2533 84.9225 35.8533 85.1625 35.48ZM102.223 57.12C100.997 57.12 100.117 56.7733 99.5834 56.08C99.0501 55.3867 98.7834 54.3733 98.7834 53.04C98.7834 51.8133 99.0101 50.2133 99.4634 48.24C99.9434 46.24 100.57 44.0133 101.343 41.56C102.143 39.08 103.037 36.5333 104.023 33.92C105.01 31.28 106.037 28.6933 107.103 26.16C108.17 23.6 109.21 21.2533 110.223 19.12C110.703 18.1867 111.21 17.5467 111.743 17.2C112.277 16.8533 112.863 16.68 113.503 16.68C114.117 16.68 114.637 16.8533 115.063 17.2C115.49 17.52 115.703 18.04 115.703 18.76C115.703 18.92 115.49 19.5333 115.063 20.6C114.637 21.64 114.077 23 113.383 24.68C112.69 26.3333 111.93 28.2 111.103 30.28C110.277 32.3333 109.45 34.48 108.623 36.72C107.797 38.9333 107.05 41.12 106.383 43.28C105.717 45.44 105.183 47.44 104.783 49.28C105.717 48.0267 106.717 46.64 107.783 45.12C108.877 43.5733 109.983 42.04 111.103 40.52C112.25 38.9733 113.37 37.56 114.463 36.28C115.583 35 116.623 33.9733 117.583 33.2C118.543 32.4267 119.383 32.04 120.103 32.04C121.437 32.04 122.503 32.4133 123.303 33.16C124.13 33.88 124.543 35.1333 124.543 36.92C124.543 37.7467 124.383 38.7467 124.063 39.92C123.743 41.0667 123.357 42.28 122.903 43.56C122.477 44.8133 122.103 46.0267 121.783 47.2C121.463 48.3733 121.303 49.4 121.303 50.28C121.303 50.76 121.53 51 121.983 51C123.29 51 124.61 50.72 125.943 50.16C127.303 49.6 128.597 48.9067 129.823 48.08C131.077 47.2267 132.21 46.3867 133.223 45.56C134.263 44.7067 135.103 44 135.743 43.44C136.197 43.0133 136.61 42.7333 136.983 42.6C137.357 42.44 137.703 42.36 138.023 42.36C139.117 42.36 139.663 42.9067 139.663 44C139.663 44.2133 139.623 44.48 139.543 44.8C139.463 45.0933 139.21 45.4667 138.783 45.92C138.357 46.3733 137.717 47.0133 136.863 47.84C136.01 48.6667 135.01 49.5467 133.863 50.48C132.743 51.4133 131.517 52.3067 130.183 53.16C128.877 53.9867 127.53 54.6667 126.143 55.2C124.757 55.7333 123.41 56 122.103 56C120.13 56 118.61 55.44 117.543 54.32C116.477 53.2267 115.943 51.7333 115.943 49.84C115.943 48.5333 116.21 46.8933 116.743 44.92C117.277 42.92 117.877 40.88 118.543 38.8C117.61 39.7067 116.637 40.7867 115.623 42.04C114.61 43.2667 113.583 44.5733 112.543 45.96C111.503 47.32 110.477 48.6667 109.463 50C108.477 51.3067 107.53 52.5067 106.623 53.6C105.717 54.6667 104.89 55.52 104.143 56.16C103.397 56.8 102.757 57.12 102.223 57.12ZM134.099 38.36C133.592 38.36 133.206 38.2267 132.939 37.96C132.672 37.6933 132.539 37.2267 132.539 36.56C132.539 36.16 132.659 35.7467 132.899 35.32C133.166 34.8933 133.459 34.3867 133.779 33.8C134.099 33.2133 134.379 32.5067 134.619 31.68C134.886 30.8533 135.019 29.8667 135.019 28.72C135.019 28.3467 134.992 27.9733 134.939 27.6C134.912 27.2 134.899 26.8267 134.899 26.48C134.899 23.7067 135.779 22.32 137.539 22.32C138.339 22.32 138.992 22.6 139.499 23.16C140.006 23.72 140.259 24.84 140.259 26.52C140.259 28.3867 140.032 30.0533 139.579 31.52C139.126 32.9867 138.566 34.2267 137.899 35.24C137.232 36.2533 136.552 37.0267 135.859 37.56C135.166 38.0933 134.579 38.36 134.099 38.36ZM146.073 56.04C144.927 56.04 144.113 55.88 143.633 55.56C143.18 55.24 142.953 54.7733 142.953 54.16C142.953 53.6267 143.14 53.1733 143.513 52.8C143.887 52.4 144.713 52 145.993 51.6C147.487 51.1467 148.9 50.6267 150.233 50.04C151.593 49.4267 152.7 48.76 153.553 48.04C154.433 47.32 154.873 46.56 154.873 45.76C154.873 45.2267 154.687 44.84 154.313 44.6C153.967 44.36 153.553 44.24 153.073 44.24C152.673 44.24 152.087 44.3067 151.313 44.44C150.567 44.5467 149.74 44.6933 148.833 44.88C147.927 45.04 147.047 45.1867 146.193 45.32C145.367 45.4267 144.66 45.48 144.073 45.48C142.687 45.48 141.66 45.1733 140.993 44.56C140.327 43.92 139.993 43.1067 139.993 42.12C139.993 41.5867 140.273 40.8533 140.833 39.92C141.393 38.9867 142.14 37.96 143.073 36.84C144.007 35.72 145.047 34.6 146.193 33.48C147.34 32.36 148.5 31.3333 149.673 30.4C150.873 29.44 152.007 28.68 153.073 28.12C154.14 27.5333 155.047 27.24 155.793 27.24C156.647 27.24 157.327 27.5067 157.833 28.04C158.367 28.5733 158.633 29.2933 158.633 30.2C158.633 30.6267 158.593 31.0933 158.513 31.6C158.433 32.08 158.233 32.52 157.913 32.92C157.593 33.2933 157.1 33.56 156.433 33.72C155.767 33.88 154.86 33.8533 153.713 33.64C152.807 34.3067 151.86 35.04 150.873 35.84C149.913 36.6133 149.007 37.4267 148.153 38.28C147.3 39.1067 146.593 39.92 146.033 40.72C147.02 40.4 148.14 40.1467 149.393 39.96C150.647 39.7467 151.913 39.64 153.193 39.64C154.74 39.64 155.993 39.92 156.953 40.48C157.94 41.0133 158.66 41.7333 159.113 42.64C159.593 43.5467 159.833 44.5467 159.833 45.64C159.833 46.8667 159.433 48.0933 158.633 49.32C157.833 50.5467 156.767 51.6667 155.433 52.68C154.1 53.6933 152.62 54.5067 150.993 55.12C149.367 55.7333 147.727 56.04 146.073 56.04ZM202.926 43.84C201.379 43.84 199.859 43.6533 198.366 43.28C196.899 42.9067 195.513 42.4267 194.206 41.84C193.619 44.24 193.113 46.8667 192.686 49.72C192.579 50.52 192.419 51.2533 192.206 51.92C191.993 52.56 191.659 53.08 191.206 53.48C190.753 53.88 190.086 54.08 189.206 54.08C188.379 54.08 187.833 53.76 187.566 53.12C187.299 52.48 187.166 51.6933 187.166 50.76C187.166 50.4667 187.273 49.7067 187.486 48.48C187.699 47.2533 187.966 45.7733 188.286 44.04C188.606 42.28 188.939 40.4667 189.286 38.6C188.193 37.5067 187.646 36.5067 187.646 35.6C187.646 35.1467 187.779 34.72 188.046 34.32C188.339 33.8933 188.899 33.68 189.726 33.68C189.833 33.68 189.979 33.72 190.166 33.8C190.433 32.3067 190.659 30.9733 190.846 29.8C191.059 28.6 191.179 27.7333 191.206 27.2C191.259 26.1867 191.419 25.44 191.686 24.96C191.953 24.4533 192.286 24.12 192.686 23.96C193.113 23.7733 193.539 23.68 193.966 23.68C194.526 23.68 194.953 23.8 195.246 24.04C195.539 24.28 195.686 24.8133 195.686 25.64C195.686 26.44 195.673 27.1733 195.646 27.84C196.953 25.6 198.313 24.0267 199.726 23.12C201.139 22.1867 202.686 21.72 204.366 21.72C206.019 21.72 207.459 22.1733 208.686 23.08C209.913 23.9867 210.859 25.2933 211.526 27C212.219 28.68 212.566 30.7067 212.566 33.08C212.566 36.7067 211.726 39.4133 210.046 41.2C208.393 42.96 206.019 43.84 202.926 43.84ZM195.566 37.12C196.553 37.6533 197.606 38.12 198.726 38.52C199.846 38.8933 200.993 39.08 202.166 39.08C204.059 39.08 205.446 38.5867 206.326 37.6C207.233 36.6133 207.686 34.9867 207.686 32.72C207.686 28.6933 206.473 26.68 204.046 26.68C202.499 26.68 200.993 27.5467 199.526 29.28C198.086 31.0133 196.766 33.6267 195.566 37.12ZM223.792 55.32C221.899 55.32 220.379 54.6533 219.232 53.32C218.086 51.96 217.512 50.1467 217.512 47.88C217.512 47.16 217.606 46.4267 217.792 45.68C218.006 44.9333 218.259 44.24 218.552 43.6C218.392 43.36 218.259 43.0533 218.152 42.68C218.072 42.28 218.032 41.8133 218.032 41.28C218.032 39.5467 218.339 37.96 218.952 36.52C219.566 35.0533 220.392 33.7867 221.432 32.72C222.472 31.6533 223.619 30.8267 224.872 30.24C226.126 29.6533 227.392 29.36 228.672 29.36C230.859 29.36 232.646 30.0933 234.032 31.56C235.446 33.0267 236.152 35.3067 236.152 38.4C236.152 39.9467 235.912 41.52 235.432 43.12C234.952 44.72 234.299 46.2533 233.472 47.72C232.672 49.16 231.739 50.4533 230.672 51.6C229.632 52.7467 228.512 53.6533 227.312 54.32C226.139 54.9867 224.966 55.32 223.792 55.32ZM223.152 41.8C223.286 42.0933 223.352 42.44 223.352 42.84C223.352 43.24 223.272 43.6533 223.112 44.08C222.952 44.5067 222.792 45.08 222.632 45.8C222.472 46.4933 222.392 47.4933 222.392 48.8C222.392 49.1467 222.432 49.44 222.512 49.68C222.619 49.8933 222.846 50 223.192 50C224.099 50 224.952 49.7067 225.752 49.12C226.579 48.5333 227.312 47.76 227.952 46.8C228.619 45.84 229.179 44.7733 229.632 43.6C230.112 42.4 230.472 41.1867 230.712 39.96C230.979 38.7067 231.112 37.5467 231.112 36.48C231.112 35.7867 230.979 35.3067 230.712 35.04C230.446 34.7733 229.979 34.64 229.312 34.64C228.406 34.64 227.472 34.9333 226.512 35.52C225.579 36.08 224.792 36.8533 224.152 37.84C223.512 38.8 223.192 39.8933 223.192 41.12C223.192 41.36 223.179 41.5867 223.152 41.8ZM242.354 55.76C241.688 55.76 241.114 55.52 240.634 55.04C240.181 54.56 239.954 53.8667 239.954 52.96C239.954 52.56 240.008 51.9067 240.114 51C240.248 50.0667 240.408 49 240.594 47.8C240.808 46.6 241.008 45.3467 241.194 44.04C241.408 42.7333 241.581 41.4933 241.714 40.32C241.874 39.1467 241.981 38.1467 242.034 37.32C242.088 36.3067 242.354 35.5867 242.834 35.16C243.314 34.7067 243.888 34.48 244.554 34.48C245.088 34.48 245.568 34.6133 245.994 34.88C246.448 35.12 246.728 35.64 246.834 36.44C246.968 37.2133 246.981 38.3333 246.874 39.8C248.048 37.6667 249.234 35.76 250.434 34.08C251.661 32.4 252.941 31.0667 254.274 30.08C256.488 28.4 258.488 27.56 260.274 27.56C261.288 27.56 261.954 27.7867 262.274 28.24C262.594 28.6933 262.754 29.16 262.754 29.64C262.754 29.96 262.674 30.2533 262.514 30.52C262.381 30.7867 262.088 31.0667 261.634 31.36C261.181 31.6533 260.488 32.04 259.554 32.52C258.301 33.16 257.061 34 255.834 35.04C254.634 36.08 253.434 37.4133 252.234 39.04C251.034 40.6667 249.821 42.6667 248.594 45.04C247.368 47.4133 246.101 50.24 244.794 53.52C244.554 54.4267 244.208 55.0267 243.754 55.32C243.328 55.6133 242.861 55.76 242.354 55.76ZM288.946 33.84C288.946 34.16 288.839 34.44 288.626 34.68C288.413 34.92 288.146 35.1067 287.826 35.24C287.373 35.4267 286.586 35.6667 285.466 35.96C284.346 36.2533 282.986 36.5867 281.386 36.96C279.813 37.3333 278.119 37.72 276.306 38.12C274.493 38.4933 272.679 38.8533 270.866 39.2C270.173 41.76 269.466 44.4 268.746 47.12C268.026 49.8133 267.306 52.4667 266.586 55.08C266.319 56.0133 265.999 56.72 265.626 57.2C265.253 57.7067 264.613 57.96 263.706 57.96C262.719 57.96 262.053 57.64 261.706 57C261.386 56.3867 261.346 55.5467 261.586 54.48C262.279 51.5733 262.919 48.8667 263.506 46.36C264.119 43.8533 264.613 41.8267 264.986 40.28C263.386 40.5467 261.986 40.76 260.786 40.92C259.586 41.0533 258.733 41.1067 258.226 41.08C257.666 41.0267 257.199 40.8 256.826 40.4C256.453 40 256.279 39.5067 256.306 38.92C256.359 38.3867 256.599 37.9333 257.026 37.56C257.453 37.16 257.959 36.92 258.546 36.84C259.373 36.76 260.439 36.64 261.746 36.48C263.053 36.32 264.493 36.1333 266.066 35.92C266.413 34.56 266.813 33.16 267.266 31.72C267.719 30.2533 268.186 28.8533 268.666 27.52C269.173 26.16 269.653 24.9733 270.106 23.96C270.559 22.9467 270.973 22.2133 271.346 21.76C271.639 21.4133 271.999 21.1467 272.426 20.96C272.879 20.7733 273.319 20.68 273.746 20.68C274.306 20.68 274.759 20.88 275.106 21.28C275.453 21.68 275.626 22.1467 275.626 22.68C275.626 22.8933 275.613 23.12 275.586 23.36C275.559 23.5733 275.506 23.7867 275.426 24C274.919 25.3333 274.373 26.9467 273.786 28.84C273.226 30.7333 272.639 32.8133 272.026 35.08C274.026 34.7867 275.986 34.4933 277.906 34.2C279.853 33.88 281.613 33.5867 283.186 33.32C284.786 33.0267 286.066 32.7733 287.026 32.56C287.559 32.3733 288.013 32.4133 288.386 32.68C288.759 32.92 288.946 33.3067 288.946 33.84ZM286.573 58.48C285.907 58.48 285.333 58.28 284.853 57.88C284.373 57.5067 284.16 56.7333 284.213 55.56C284.267 54.2533 284.36 52.8933 284.493 51.48C284.627 50.0667 284.773 48.7467 284.933 47.52C285.28 44.8267 285.36 42.7467 285.173 41.28C285.013 39.7867 284.6 38.72 283.933 38.08C283.293 37.44 282.427 37.0133 281.333 36.8C280.8 36.6933 280.373 36.4933 280.053 36.2C279.733 35.88 279.573 35.4667 279.573 34.96C279.573 34.2933 279.84 33.8533 280.373 33.64C280.88 33.4267 281.533 33.32 282.333 33.32C282.947 33.32 283.733 33.36 284.693 33.44C285.68 33.4933 286.733 33.5333 287.853 33.56C288.787 30.4933 289.84 27.96 291.013 25.96C292.187 23.96 293.467 22.3867 294.853 21.24C296.24 20.0667 297.707 19.2533 299.253 18.8C300.8 18.32 302.4 18.08 304.053 18.08C306.107 18.08 307.133 18.8133 307.133 20.28C307.133 21 306.787 21.5467 306.093 21.92C305.4 22.2933 304.347 22.6 302.933 22.84C301.253 23.1333 299.773 23.68 298.493 24.48C297.24 25.28 296.133 26.4133 295.173 27.88C294.24 29.3467 293.413 31.24 292.693 33.56C296.4 33.48 299.44 33.28 301.813 32.96C304.187 32.64 306.013 32.3333 307.293 32.04C308.6 31.72 309.507 31.56 310.013 31.56C310.733 31.56 311.173 31.7333 311.333 32.08C311.52 32.4267 311.613 32.8 311.613 33.2C311.613 33.6533 311.187 34.12 310.333 34.6C309.773 34.92 308.88 35.28 307.653 35.68C306.427 36.0533 304.987 36.4267 303.333 36.8C301.68 37.1467 299.933 37.44 298.093 37.68C296.28 37.8933 294.507 38 292.773 38C292.347 38 291.96 38 291.613 38C291.32 39.5467 291.027 41.1867 290.733 42.92C290.467 44.6267 290.227 46.2933 290.013 47.92C289.8 49.5467 289.613 51.0267 289.453 52.36C289.32 53.6933 289.24 54.76 289.213 55.56C289.187 56.5467 288.933 57.28 288.453 57.76C287.973 58.24 287.347 58.48 286.573 58.48ZM309.027 55.32C307.133 55.32 305.613 54.6533 304.467 53.32C303.32 51.96 302.747 50.1467 302.747 47.88C302.747 47.16 302.84 46.4267 303.027 45.68C303.24 44.9333 303.493 44.24 303.787 43.6C303.627 43.36 303.493 43.0533 303.387 42.68C303.307 42.28 303.267 41.8133 303.267 41.28C303.267 39.5467 303.573 37.96 304.187 36.52C304.8 35.0533 305.627 33.7867 306.667 32.72C307.707 31.6533 308.853 30.8267 310.107 30.24C311.36 29.6533 312.627 29.36 313.907 29.36C316.093 29.36 317.88 30.0933 319.267 31.56C320.68 33.0267 321.387 35.3067 321.387 38.4C321.387 39.9467 321.147 41.52 320.667 43.12C320.187 44.72 319.533 46.2533 318.707 47.72C317.907 49.16 316.973 50.4533 315.907 51.6C314.867 52.7467 313.747 53.6533 312.547 54.32C311.373 54.9867 310.2 55.32 309.027 55.32ZM308.387 41.8C308.52 42.0933 308.587 42.44 308.587 42.84C308.587 43.24 308.507 43.6533 308.347 44.08C308.187 44.5067 308.027 45.08 307.867 45.8C307.707 46.4933 307.627 47.4933 307.627 48.8C307.627 49.1467 307.667 49.44 307.747 49.68C307.853 49.8933 308.08 50 308.427 50C309.333 50 310.187 49.7067 310.987 49.12C311.813 48.5333 312.547 47.76 313.187 46.8C313.853 45.84 314.413 44.7733 314.867 43.6C315.347 42.4 315.707 41.1867 315.947 39.96C316.213 38.7067 316.347 37.5467 316.347 36.48C316.347 35.7867 316.213 35.3067 315.947 35.04C315.68 34.7733 315.213 34.64 314.547 34.64C313.64 34.64 312.707 34.9333 311.747 35.52C310.813 36.08 310.027 36.8533 309.387 37.84C308.747 38.8 308.427 39.8933 308.427 41.12C308.427 41.36 308.413 41.5867 308.387 41.8ZM334.447 56C332.048 56 330.154 55.2667 328.768 53.8C327.408 52.3067 326.728 50.1867 326.728 47.44C326.728 45.9467 326.928 44.2 327.328 42.2C327.728 40.1733 328.248 38.04 328.888 35.8C329.554 33.5333 330.261 31.2933 331.008 29.08C331.781 26.8667 332.541 24.8133 333.288 22.92C334.034 21.0267 334.688 19.44 335.248 18.16C335.728 17.1733 336.408 16.68 337.288 16.68C337.848 16.68 338.301 16.8533 338.648 17.2C339.021 17.5467 339.208 18.1067 339.208 18.88C339.208 19.2533 339.021 20.0667 338.648 21.32C338.274 22.5733 337.781 24.12 337.168 25.96C336.581 27.7733 335.941 29.7333 335.248 31.84C334.581 33.9467 333.941 36.0667 333.328 38.2C332.741 40.3333 332.261 42.3467 331.888 44.24C331.514 46.1067 331.328 47.6933 331.328 49C331.328 49.5333 331.474 49.96 331.768 50.28C332.088 50.6 332.501 50.76 333.008 50.76C334.101 50.76 335.221 50.56 336.368 50.16C337.541 49.76 338.688 49.2533 339.808 48.64C340.954 48.0267 342.034 47.3733 343.048 46.68C344.061 45.9867 344.968 45.3333 345.768 44.72C346.594 44.08 347.261 43.5733 347.768 43.2C348.434 42.6933 348.888 42.44 349.128 42.44C350.034 42.44 350.488 42.88 350.488 43.76C350.488 43.9733 350.221 44.4133 349.688 45.08C349.234 45.6667 348.594 46.4133 347.768 47.32C346.941 48.2267 345.981 49.1867 344.888 50.2C343.821 51.1867 342.674 52.12 341.448 53C340.248 53.88 339.048 54.6 337.848 55.16C336.648 55.72 335.514 56 334.447 56ZM350.729 54.6C349.982 54.6 349.315 54.3467 348.729 53.84C348.169 53.3333 347.889 52.5067 347.889 51.36C347.889 50.7467 347.969 49.88 348.129 48.76C348.315 47.64 348.555 46.4267 348.849 45.12C349.142 43.7867 349.462 42.4667 349.809 41.16C350.182 39.8533 350.542 38.6933 350.889 37.68C351.235 36.64 351.542 35.8667 351.809 35.36C352.155 34.7467 352.475 34.3733 352.769 34.24C353.089 34.08 353.395 34 353.689 34C354.222 34 354.715 34.16 355.169 34.48C355.649 34.8 355.889 35.5067 355.889 36.6C355.889 37.0267 355.809 37.72 355.649 38.68C355.489 39.6133 355.289 40.7067 355.049 41.96C354.809 43.2133 354.542 44.5067 354.249 45.84C353.982 47.1733 353.715 48.44 353.449 49.64C353.209 50.8133 353.009 51.8 352.849 52.6C352.715 53.2667 352.435 53.76 352.009 54.08C351.609 54.4267 351.182 54.6 350.729 54.6ZM355.329 30.04C354.449 30.04 353.635 29.7867 352.889 29.28C352.142 28.7467 351.769 27.9333 351.769 26.84C351.769 25.9333 351.995 25.2 352.449 24.64C352.902 24.08 353.435 23.68 354.049 23.44C354.689 23.1733 355.249 23.04 355.729 23.04C356.209 23.04 356.742 23.1467 357.329 23.36C357.915 23.5467 358.422 23.9067 358.849 24.44C359.302 24.9467 359.529 25.68 359.529 26.64C359.529 27.28 359.302 27.8667 358.849 28.4C358.395 28.9067 357.835 29.3067 357.169 29.6C356.529 29.8933 355.915 30.04 355.329 30.04ZM367.894 55.32C366 55.32 364.48 54.6533 363.334 53.32C362.187 51.96 361.614 50.1467 361.614 47.88C361.614 47.16 361.707 46.4267 361.894 45.68C362.107 44.9333 362.36 44.24 362.654 43.6C362.494 43.36 362.36 43.0533 362.254 42.68C362.174 42.28 362.134 41.8133 362.134 41.28C362.134 39.5467 362.44 37.96 363.054 36.52C363.667 35.0533 364.494 33.7867 365.534 32.72C366.574 31.6533 367.72 30.8267 368.974 30.24C370.227 29.6533 371.494 29.36 372.774 29.36C374.96 29.36 376.747 30.0933 378.134 31.56C379.547 33.0267 380.254 35.3067 380.254 38.4C380.254 39.9467 380.014 41.52 379.534 43.12C379.054 44.72 378.4 46.2533 377.574 47.72C376.774 49.16 375.84 50.4533 374.774 51.6C373.734 52.7467 372.614 53.6533 371.414 54.32C370.24 54.9867 369.067 55.32 367.894 55.32ZM367.254 41.8C367.387 42.0933 367.454 42.44 367.454 42.84C367.454 43.24 367.374 43.6533 367.214 44.08C367.054 44.5067 366.894 45.08 366.734 45.8C366.574 46.4933 366.494 47.4933 366.494 48.8C366.494 49.1467 366.534 49.44 366.614 49.68C366.72 49.8933 366.947 50 367.294 50C368.2 50 369.054 49.7067 369.854 49.12C370.68 48.5333 371.414 47.76 372.054 46.8C372.72 45.84 373.28 44.7733 373.734 43.6C374.214 42.4 374.574 41.1867 374.814 39.96C375.08 38.7067 375.214 37.5467 375.214 36.48C375.214 35.7867 375.08 35.3067 374.814 35.04C374.547 34.7733 374.08 34.64 373.414 34.64C372.507 34.64 371.574 34.9333 370.614 35.52C369.68 36.08 368.894 36.8533 368.254 37.84C367.614 38.8 367.294 39.8933 367.294 41.12C367.294 41.36 367.28 41.5867 367.254 41.8Z" fill="black"/>
</svg>
